<svg width="48" height="34" viewBox="0 0 48 34" fill="none" xmlns="http://www.w3.org/2000/svg">
<path d="M7.5 29H2C1.44772 29 1 28.5523 1 28V4C1 3.44772 1.44772 3 2 3H31C31.5523 3 32 3.44772 32 4V28C32 28.5523 31.5523 29 31 29H15.9725M32 9H38.9648C39.2992 9 39.6114 9.1671 39.7969 9.4453L46.3321 19.2481C46.4416 19.4123 46.5 19.6054 46.5 19.8028V27.5C46.5 28.0523 46.0523 28.5 45.5 28.5H43M43 28.5C43 30.9853 40.9853 33 38.5 33C36.0147 33 34 30.9853 34 28.5C34 26.0147 36.0147 24 38.5 24C40.9853 24 43 26.0147 43 28.5ZM34.5 28.5H32M12.5 1H3M2 1H1M41.3478 12H34.5C34.2239 12 34 12.2239 34 12.5V18.5C34 18.7761 34.2239 19 34.5 19H46M46.5 25.5H43.5M1 26.5H5.5M17 26H32M3 5L32 5M16 28.5C16 30.9853 13.9853 33 11.5 33C9.01472 33 7 30.9853 7 28.5C7 26.0147 9.01472 24 11.5 24C13.9853 24 16 26.0147 16 28.5ZM39 28.5C39 28.7761 38.7761 29 38.5 29C38.2239 29 38 28.7761 38 28.5C38 28.2239 38.2239 28 38.5 28C38.7761 28 39 28.2239 39 28.5ZM12 28.5C12 28.7761 11.7761 29 11.5 29C11.2239 29 11 28.7761 11 28.5C11 28.2239 11.2239 28 11.5 28C11.7761 28 12 28.2239 12 28.5Z" stroke="black" stroke-width="1.2"/>
</svg>
