<svg xmlns="http://www.w3.org/2000/svg" width="48" height="48" viewBox="0 0 48 48">
  <path id="Aftercare" d="M33.768,28.818a1,1,0,0,1,1.414,0l11.5,11.5a4.5,4.5,0,1,1-6.362,6.364l-11.5-11.5a1,1,0,0,1,0-1.414L30.585,32l-3.758-3.757L8.536,46.535a5,5,0,1,1-7.072-7.07L19.756,21.174,11,12.416,7.707,15.707A1,1,0,0,1,7,16c-.041,0-.082,0-.123-.007a1,1,0,0,1-.735-.478L.343,5.85A1.5,1.5,0,0,1,.569,4.017L4.017.569A1.5,1.5,0,0,1,5.85.344l9.665,5.8a1,1,0,0,1,.192,1.564l-3.3,3.3L21.17,19.76l3.583-3.583A11.993,11.993,0,0,1,40.816,1.013l1.34.589L33.878,9.879a3,3,0,1,0,4.243,4.242L46.4,5.843l.588,1.34A11.993,11.993,0,0,1,31.824,23.247L28.241,26.83,32,30.587ZM2.259,5.156,7.2,13.388,13.387,7.2,5.155,2.26ZM7.121,45.121a3,3,0,0,1-4.243-4.242l24.241-24.24-.275-.626A9.993,9.993,0,0,1,36,2a9.863,9.863,0,0,1,2.587.342L32.464,8.465a5,5,0,1,0,7.072,7.07l6.123-6.123A9.993,9.993,0,0,1,31.987,21.155l-.625-.274Zm34.611.147a2.5,2.5,0,1,0,3.535-3.534h0L34.474,30.94l-3.535,3.535Z" fill="#222" fill-rule="evenodd"/>
</svg>
